<svg id="Capa_1" enable-background="new 0 0 512.001 512.001" height="512" viewBox="0 0 512.001 512.001" width="512" xmlns="http://www.w3.org/2000/svg"><g><g><circle cx="464.42" cy="436.363" fill="#5d5360" r="40.081"/><circle cx="47.582" cy="436.363" fill="#5d5360" r="40.081"/><path d="m480.139 433.22-54.508-272.548c-1.734-8.682-10.149-14.326-18.862-12.576-8.682 1.734-14.314 10.181-12.576 18.862l54.508 272.548c1.523 7.621 8.216 12.893 15.703 12.893 1.041 0 2.098-.102 3.159-.317 8.682-1.734 14.314-10.18 12.576-18.862z" fill="#857e87"/><path d="m441.508 403.542 7.193 35.964c1.523 7.621 8.216 12.893 15.703 12.893 1.041 0 2.098-.102 3.159-.317 8.682-1.734 14.314-10.181 12.576-18.862l-7.197-35.985c-2.752-.597-5.592-.952-8.522-.952-8.535 0-16.411 2.712-22.912 7.259z" fill="#6f6571"/><path d="m300.09 436.363h-180.363v-32.065h224.452l-12.024 16.032c-7.57 10.093-19.45 16.033-32.065 16.033z" fill="#857e87"/></g><path d="m479.381 391.186-2.621-13.105c-.812-4.062-4.765-6.695-8.825-5.884-4.062.812-6.696 4.764-5.884 8.825l10.734 53.67c.447 2.234-.003 4.508-1.267 6.404s-3.19 3.186-5.447 3.636c-.546.111-1.107.167-1.667.167-4.043 0-7.555-2.886-8.349-6.864l-54.508-272.55c-.447-2.233.002-4.507 1.267-6.403 1.264-1.896 3.19-3.186 5.432-3.634 2.237-.448 4.509-.003 6.398 1.255 1.895 1.262 3.185 3.193 3.633 5.439l36.974 184.875c.812 4.062 4.765 6.696 8.825 5.884 4.062-.812 6.696-4.764 5.884-8.825l-36.974-184.873c-1.234-6.176-4.794-11.497-10.025-14.982-3.073-2.048-6.51-3.312-10.073-3.76l-12.043-60.217c-.417-2.085-.044-4.238 1.05-6.063l6.291-10.484c4.42-7.366 4.532-16.227.299-23.702s-11.888-11.938-20.478-11.938h-19.781c-4.142 0-7.5 3.358-7.5 7.5s3.358 7.5 7.5 7.5h19.781c4.489 0 6.688 3.027 7.424 4.328.737 1.302 2.201 4.744-.108 8.594l-6.291 10.484c-3.019 5.031-4.047 10.969-2.897 16.722l12.048 60.242c-3.111 1.786-5.802 4.261-7.851 7.333-3.488 5.231-4.729 11.506-3.495 17.668l31.769 158.851-69.52 69.52h-232.426c-13.756-23.924-39.558-40.081-69.079-40.081-15.838 0-31.141 4.639-44.253 13.417-3.442 2.304-4.365 6.962-2.061 10.404 2.303 3.442 6.962 4.365 10.404 2.061 10.635-7.119 23.052-10.881 35.909-10.881 33.107 0 60.466 25.022 64.196 57.145h-64.194c-4.142 0-7.5 3.358-7.5 7.5s3.358 7.5 7.5 7.5h31.699c-3.398 14.36-16.316 25.081-31.699 25.081-17.965 0-32.581-14.616-32.581-32.581s14.616-32.581 32.581-32.581c5.52 0 10.97 1.403 15.762 4.058 3.623 2.007 8.188.697 10.195-2.926 2.008-3.623.698-8.188-2.925-10.195-7.01-3.884-14.974-5.938-23.031-5.938-26.236 0-47.581 21.345-47.581 47.581s21.345 47.581 47.581 47.581c23.684 0 43.376-17.396 46.984-40.081h202.321c16.992 0 32.967-6.617 44.981-18.632l80.275-80.275 11.097 55.489c-10.321 8.987-16.401 22.16-16.401 35.918 0 26.236 21.345 47.581 47.581 47.581s47.581-21.345 47.581-47.581c-.001-20.737-13.234-38.796-32.621-45.177zm-182.494 37.677h-170.024c-.554-5.898-1.756-11.608-3.53-17.064h210.755l-2.826 2.826c-9.182 9.182-21.39 14.238-34.375 14.238zm167.533 40.081c-17.965 0-32.581-14.616-32.581-32.581 0-6.344 1.793-12.364 5.083-17.509l4.424 22.122c2.19 10.965 11.888 18.924 23.058 18.924 1.56 0 3.125-.157 4.627-.462 6.164-1.231 11.479-4.79 14.967-10.02s4.729-11.505 3.495-17.668l-4.427-22.136c8.547 5.944 13.934 15.8 13.934 26.75.001 17.964-14.615 32.58-32.58 32.58z"/></g></svg>