<?xml version="1.0" encoding="utf-8"?>
<!-- Generator: Adobe Illustrator 21.0.2, SVG Export Plug-In . SVG Version: 6.00 Build 0)  -->
<svg version="1.1" id="Capa_1" xmlns="http://www.w3.org/2000/svg" xmlns:xlink="http://www.w3.org/1999/xlink" x="0px" y="0px"
	 viewBox="0 0 1048.4 931.5" style="enable-background:new 0 0 1048.4 931.5;" xml:space="preserve">
<style type="text/css">
	.st0{fill:#E0B038;}
	.st1{fill:#92FFC3;}
	.st2{fill:#10DAFF;}
	.st3{fill:#10DAFF;stroke:#9EFF20;stroke-miterlimit:10;}
	.st4{fill:#BC7C0A;}
	.st5{fill:#E8920A;stroke:#000000;stroke-width:7;stroke-linecap:round;stroke-linejoin:round;stroke-miterlimit:10;}
	.st6{fill:#FCAC2B;stroke:#000000;stroke-width:7;stroke-linecap:round;stroke-linejoin:round;stroke-miterlimit:10;}
</style>
<g>
	<path class="st0" d="M184.2,556.9c-1.9,0-3.5-1.6-3.5-3.5V252.9c0-1.9,1.6-3.5,3.5-3.5h300.5c1.9,0,3.5,1.6,3.5,3.5v300.5
		c0,1.9-1.6,3.5-3.5,3.5H184.2z"/>
	<path d="M484.7,252.9v300.5H184.2V252.9H484.7 M484.7,245.9H184.2c-3.9,0-7,3.1-7,7v300.5c0,3.9,3.1,7,7,7h300.5c3.9,0,7-3.1,7-7
		V252.9C491.7,249,488.6,245.9,484.7,245.9L484.7,245.9z"/>
</g>
<g>
	<ellipse class="st1" cx="448.4" cy="506.5" rx="21.4" ry="21"/>
	<ellipse class="st1" cx="225.3" cy="506.5" rx="21.4" ry="21"/>
	<path class="st2" d="M456.8,504.8l-29.2-142.6c-0.9-4.5-5.4-7.5-10.1-6.6c-4.6,0.9-7.7,5.3-6.7,9.9L440,508.1
		c0.8,4,4.4,6.7,8.4,6.7c0.6,0,1.1-0.1,1.7-0.2C454.7,513.8,457.8,509.4,456.8,504.8z"/>
	<path class="st3" d="M360.5,506.5H264v-16.8h120.1l-6.4,8.4C373.6,503.4,367.2,506.5,360.5,506.5z"/>
	<path d="M456.4,482.9L455,476c-0.4-2.1-2.5-3.5-4.7-3.1c-2.2,0.4-3.6,2.5-3.1,4.6l5.7,28.1c0.2,1.2,0,2.4-0.7,3.4
		c-0.7,1-1.7,1.7-2.9,1.9c-0.3,0.1-0.6,0.1-0.9,0.1c-2.2,0-4-1.5-4.5-3.6l-29.2-142.6c-0.2-1.2,0-2.4,0.7-3.3c0.7-1,1.7-1.7,2.9-1.9
		c1.2-0.2,2.4,0,3.4,0.7c1,0.7,1.7,1.7,1.9,2.8l19.8,96.7c0.4,2.1,2.6,3.5,4.7,3.1c2.2-0.4,3.6-2.5,3.1-4.6l-19.8-96.7
		c-0.7-3.2-2.6-6-5.4-7.8c-1.6-1.1-3.5-1.7-5.4-2l-6.4-31.5c-0.2-1.1,0-2.2,0.6-3.2l3.4-5.5c2.4-3.9,2.4-8.5,0.2-12.4
		c-2.3-3.9-6.4-6.2-11-6.2h-10.6c-2.2,0-4,1.8-4,3.9c0,2.2,1.8,3.9,4,3.9h10.6c2.4,0,3.6,1.6,4,2.3c0.4,0.7,1.2,2.5-0.1,4.5
		l-3.4,5.5c-1.6,2.6-2.2,5.7-1.6,8.7l6.4,31.5c-1.7,0.9-3.1,2.2-4.2,3.8c-1.9,2.7-2.5,6-1.9,9.2l17,83.1l-37.2,36.4H262.3
		c-7.4-12.5-21.2-21-37-21c-8.5,0-16.7,2.4-23.7,7c-1.8,1.2-2.3,3.6-1.1,5.4c1.2,1.8,3.7,2.3,5.6,1.1c5.7-3.7,12.3-5.7,19.2-5.7
		c17.7,0,32.4,13.1,34.4,29.9h-34.4c-2.2,0-4,1.8-4,3.9c0,2.2,1.8,3.9,4,3.9h17c-1.8,7.5-8.7,13.1-17,13.1c-9.6,0-17.4-7.6-17.4-17
		c0-9.4,7.8-17,17.4-17c3,0,5.9,0.7,8.4,2.1c1.9,1,4.4,0.4,5.5-1.5c1.1-1.9,0.4-4.3-1.6-5.3c-3.8-2-8-3.1-12.3-3.1
		c-14,0-25.5,11.2-25.5,24.9s11.4,24.9,25.5,24.9c12.7,0,23.2-9.1,25.1-21h108.3c9.1,0,17.6-3.5,24.1-9.7l43-42l5.9,29
		c-5.5,4.7-8.8,11.6-8.8,18.8c0,13.7,11.4,24.9,25.5,24.9c14,0,25.5-11.2,25.5-24.9C473.9,495.6,466.8,486.2,456.4,482.9
		L456.4,482.9z M358.8,502.6h-91c-0.3-3.1-0.9-6.1-1.9-8.9h112.8l-1.5,1.5C372.2,499.9,365.7,502.6,358.8,502.6z M448.4,523.5
		c-9.6,0-17.4-7.6-17.4-17c0-3.3,1-6.5,2.7-9.2l2.4,11.6c1.2,5.7,6.4,9.9,12.3,9.9c0.8,0,1.7-0.1,2.5-0.2c3.3-0.6,6.1-2.5,8-5.2
		c1.9-2.7,2.5-6,1.9-9.2l-2.4-11.6c4.6,3.1,7.5,8.3,7.5,14C465.9,515.9,458,523.5,448.4,523.5L448.4,523.5z"/>
</g>
<g>
	<path class="st4" d="M184.2,256.4c-1,0-2-0.5-2.7-1.2c-0.7-0.8-1-1.8-0.8-2.8l10.7-66c0.3-1.7,1.7-2.9,3.5-2.9h279
		c1.7,0,3.2,1.2,3.5,2.9l10.7,66c0.2,1-0.1,2-0.8,2.8c-0.7,0.8-1.6,1.2-2.7,1.2H184.2z"/>
	<path d="M474,186.9l10.7,66H184.2l10.7-66H474 M474,179.9H195c-3.4,0-6.4,2.5-6.9,5.9l-10.7,66c-0.3,2,0.2,4.1,1.6,5.7
		c1.3,1.6,3.3,2.5,5.3,2.5h300.5c2.1,0,4-0.9,5.3-2.5c1.3-1.6,1.9-3.6,1.6-5.7l-10.7-66C480.3,182.4,477.4,179.9,474,179.9
		L474,179.9z"/>
</g>
<polygon class="st5" points="344.9,256.4 305.9,256.4 308.5,184.4 342.3,184.4 "/>
<rect x="305.9" y="256.4" class="st6" width="39" height="101"/>
</svg>
